<?xml version="1.0" standalone="no"?>
<!DOCTYPE svg PUBLIC "-//W3C//DTD SVG 20010904//EN"
 "http://www.w3.org/TR/2001/REC-SVG-20010904/DTD/svg10.dtd">
<svg version="1.0" xmlns="http://www.w3.org/2000/svg"
 width="512.000000pt" height="512.000000pt" viewBox="0 0 512.000000 512.000000"
 preserveAspectRatio="xMidYMid meet">
<metadata>
Created by potrace 1.11, written by Peter Selinger 2001-2013
</metadata>
<g transform="translate(0.000000,512.000000) scale(0.100000,-0.100000)"
fill="#000000" stroke="none">
<path d="M2390 3904 c-116 -20 -129 -23 -222 -54 -283 -95 -537 -290 -690
-530 -51 -79 -103 -184 -133 -265 -29 -78 -29 -79 -54 -185 -30 -134 -34 -401
-7 -530 3 -14 11 -50 17 -80 6 -30 15 -64 19 -75 5 -11 12 -31 16 -45 16 -59
100 -222 160 -311 193 -288 487 -478 859 -555 93 -19 334 -25 460 -10 397 45
744 273 923 606 50 92 95 226 118 345 24 126 23 468 -1 494 -3 2 -1110 4
-1226 2 l-26 -1 -1 -204 0 -205 395 0 c218 0 398 -3 401 -6 14 -14 -50 -176
-103 -260 -85 -135 -261 -257 -425 -295 -30 -7 -66 -16 -80 -20 -37 -10 -269
-11 -315 0 -22 5 -53 11 -68 14 -92 16 -229 79 -322 148 -222 165 -339 412
-337 713 0 84 4 122 17 185 3 14 7 36 10 50 13 72 89 227 148 305 45 59 132
140 194 181 55 37 187 101 220 107 10 2 25 7 33 10 14 5 64 15 115 23 44 7
204 7 260 0 175 -21 336 -98 466 -221 l45 -43 166 163 166 163 -52 52 c-172
168 -427 292 -686 334 -107 17 -361 17 -460 0z"/>
</g>
</svg>
