<svg viewBox="0 0 24 24" xmlns="http://www.w3.org/2000/svg"><defs/><path d="M17.81 4.65h.86c1.5.06 2.77.58 3.77 1.58S23.96 8.48 24 9.99v7.36a5.31 5.31 0 01-5.33 5.33H5.33A5.31 5.31 0 010 17.35V9.99a5.26 5.26 0 011.56-3.76c1-1 2.26-1.52 3.77-1.58h.78L4.93 3.53a1.23 1.23 0 01-.37-.9c0-.36.12-.66.37-.91l.03-.03c.27-.25.57-.37.92-.37.35 0 .65.12.92.37l2.85 2.75.19.21h4.27a.84.84 0 01.16-.21l2.85-2.75c.27-.25.57-.37.92-.37.35 0 .66.15.93.4s.39.55.39.9c0 .36-.12.66-.37.91zM5.33 7.24a2.68 2.68 0 00-2.66 2.67v7.52a2.67 2.67 0 002.67 2.67h13.33a2.67 2.67 0 002.66-2.67V9.9a2.68 2.68 0 00-2.67-2.67zM8 11.11c.37 0 .68.12.93.37s.39.57.4.96v1.17c-.01.4-.15.71-.4.96s-.56.38-.93.38-.68-.13-.93-.38a1.39 1.39 0 01-.4-.96v-1.17c0-.37.13-.69.38-.95.26-.25.58-.38.95-.38zm8 0c.37 0 .68.12.93.37s.39.57.4.96v1.17c-.01.4-.15.71-.4.96s-.56.38-.93.38-.68-.13-.93-.38a1.39 1.39 0 01-.4-.96v-1.17c.01-.4.15-.71.4-.96s.56-.37.93-.37z" fill="#00A1D6"/></svg>