<svg xmlns="http://www.w3.org/2000/svg" viewBox="0 0 423.365 422.907"><style>.a{fill:#a20002}</style><path class="a" d="M133.855 14.837a211.841 211.841 0 01264.04 95.98c24.15 44.05 31.35 96.86 20.64 145.87a209.826 209.826 0 01-29.5 70.37 212.714 212.714 0 01-91.21 77.7c-23.5 10.6-48.97 16.3-74.63 18.15h-22.19c-7.45-.51-14.85-1.44-22.23-2.46a211.476 211.476 0 01-44.92-405.61m48.04 17.96a180.358 180.358 0 00-78.88 33.66q59.76 62.925 119.28 126.08c42.7 45.3 85.6 90.4 128.22 135.77a185.1 185.1 0 0030.93-52.82 181.076 181.076 0 00-65.1-211.98c-38.45-27.46-87.91-38.63-134.45-30.71m-88.75 45.15c.22 3.19 3.02 6.28 1.02 9.4a16 16 0 01-4.13-6.41c-1.2.18-2.41.37-3.61.57.88 3.29 2.31 6.92 5.73 8.3 2.76 1.56 6.4-.18 7.44-3.02 1.04-3.4-2.87-6.33-1.6-9.67 2.65-.17 3.26 3.02 4.46 4.75 1.02-.12 2.04-.25 3.06-.37-.4-3.05-1.74-6.2-4.72-7.53-3.04-1.96-7.46.44-7.65 3.98m6.55 20.26c1.22 3.04 4.49 4.11 7.37 4.92l.28-3.6c-2.06-.69-4.83-1.92-4.43-4.59.79-3.13 4.02-6.42 7.5-5.59 1.96.56 2.19 2.9 3.08 4.43 1.17-.19 2.34-.37 3.52-.56-.83-2.67-1.72-5.77-4.53-6.99-6.87-4.18-16.6 4.83-12.79 11.98m-19.47-11.62c-23.48 24.94-40.11 56.42-46.5 90.13a181.21 181.21 0 00185.89 215.81c39.92-1.49 78.96-16.99 109.43-42.75L80.225 86.587m26.78 19.39c1 1.1 1.99 2.2 2.99 3.31 4.29-4.11 8.62-8.17 12.94-12.25-1-1.06-2-2.11-3-3.17-4.24 4.11-8.51 8.19-12.93 12.11m5.65 6.04q4.065 4.275 8.09 8.59l2.49-2.76c-1.66-1.69-3.33-3.38-4.99-5.06.9-.9 1.81-1.79 2.72-2.68 1.34 1.48 2.68 2.97 4 4.47l2.79-2.61c-1.39-1.38-2.77-2.75-4.16-4.12.76-.81 1.52-1.62 2.28-2.42a815.9 815.9 0 004.9 5.35c.84-.91 1.69-1.82 2.54-2.72-2.64-2.65-5.2-5.37-7.65-8.18-4.33 4.05-8.59 8.19-13.01 12.14m10.23 10.86q1.455 1.545 2.91 3.11c2.99-2.92 5.87-5.94 8.76-8.97-1.9 4.2-3.4 8.55-5.04 12.85 1.01 1.1 2.01 2.2 3.01 3.32 4.29-4.07 8.56-8.17 12.92-12.16-.91-1.07-1.82-2.13-2.73-3.2-3.03 2.86-5.85 5.93-8.73 8.93 1.81-4.18 3.31-8.48 4.86-12.76q-1.515-1.665-2.98-3.36c-4.24 4.17-8.62 8.19-12.98 12.24m15.71 16.37c1.15 3.19 4.49 4.5 7.5 5.29.12-.9.35-2.7.46-3.6-2-.8-4.5-1.62-4.76-4.14a8.3 8.3 0 016.16-6.25c2.82-.44 3.69 2.64 4.61 4.61 1.18-.19 2.36-.39 3.54-.59-.87-2.74-1.91-5.91-4.83-7.09-6.76-3.66-15.9 4.68-12.68 11.77m7.58 8.28q3.915 4.155 7.83 8.34c.89-.87 1.77-1.74 2.66-2.6-1.7-1.74-3.38-3.49-5.06-5.23.95-.82 1.91-1.63 2.87-2.45 1.33 1.48 2.67 2.95 4.02 4.43.84-.91 1.68-1.82 2.53-2.73q-2.04-2.1-4.06-4.19c.57-.57 1.72-1.7 2.29-2.26l4.79 5.21c.89-.81 1.77-1.62 2.66-2.44-2.56-2.81-5.19-5.57-7.73-8.41-4.13 4.25-8.62 8.13-12.8 12.33m23.12 5.69c-3.39 1.71-6.37 4.86-6.71 8.79a8.226 8.226 0 008.31 8.33 11.929 11.929 0 009.26-7.52c2.11-5.89-5.21-12.7-10.86-9.6m16.32 10.34q-6.39 6.135-12.86 12.2 1.545 1.59 3.09 3.2 2-2.085 4.01-4.14c1.82 1.53 3.42 3.9 6.01 4.04 4.04.76 8.41-4.28 6.03-8.02-1.64-2.78-4.09-4.95-6.28-7.28m-1.72 24.03c2.74 2.76 5.44 5.58 7.99 8.52.82-.95 1.63-1.89 2.45-2.83-1.62-1.73-3.25-3.45-4.85-5.2.91-.84 1.83-1.68 2.76-2.51q1.95 2.25 3.9 4.51c.89-.88 1.78-1.75 2.67-2.62-1.33-1.46-2.66-2.91-3.98-4.37.74-.75 1.47-1.5 2.22-2.24 1.63 1.79 3.27 3.58 4.86 5.41.83-.93 1.66-1.86 2.5-2.79-2.57-2.68-5.14-5.37-7.58-8.16-4.29 4.11-8.65 8.16-12.94 12.28m10.33 10.72c.89 1.04 1.79 2.09 2.69 3.13 3.05-2.83 5.88-5.88 8.66-8.97-1.64 4.25-3.29 8.49-4.8 12.79q1.5 1.68 3.01 3.38c4.19-4.12 8.48-8.14 12.79-12.12q-1.35-1.65-2.7-3.31c-3.08 2.97-6 6.09-8.81 9.32 1.8-4.31 3.37-8.7 5.02-13.07q-1.575-1.7-3.1-3.41c-4.15 4.2-8.54 8.14-12.76 12.26m12.32 13.08l2.73 3.09c3.05-2.75 5.81-5.79 8.72-8.68-1.78 4.12-3.32 8.33-4.84 12.55q1.455 1.71 2.88 3.43c4.31-4.1 8.62-8.2 13.02-12.2-.95-1.03-1.91-2.07-2.86-3.09-3.09 2.87-5.93 5.99-8.83 9.05 1.95-4.22 3.49-8.6 5.06-12.97-1.02-1.09-2.05-2.16-3.08-3.23-4.24 4.05-8.52 8.05-12.8 12.05m12.41 13.28c2.62 2.74 5.22 5.51 7.84 8.26.9-.82 1.81-1.64 2.72-2.46-1.69-1.74-3.37-3.48-5.07-5.21.9-.88 1.81-1.76 2.72-2.64q2.01 2.265 4 4.54c.86-.91 1.73-1.81 2.6-2.7-1.33-1.42-2.66-2.83-3.99-4.25l2.24-2.28c1.61 1.71 3.21 3.44 4.83 5.15.91-.8 1.81-1.6 2.72-2.39-2.63-2.73-5.25-5.48-7.78-8.31-4.25 4.12-8.68 8.06-12.83 12.29m17.69 6.24c.24 2.69 3 5.64.45 7.95a12.26 12.26 0 01-3.6-6.19l-3.92.51c.99 3.45 2.56 7.5 6.37 8.59a5.2 5.2 0 006.91-3.86c-.06-2.99-1.71-5.67-1.95-8.63 2.81-1.13 3.56 2.58 4.65 4.34.86-.14 2.58-.43 3.44-.57-.92-3.05-2.26-6.42-5.49-7.63-3.4-1.8-8.02 1.73-6.86 5.49m10 9.96c.57 2.77 1.78 5.36 2.55 8.08-3.37.69-4.62-2.55-5.5-5.09-.91.05-2.74.17-3.65.22.85 3.26 2.11 6.87 5.44 8.36 3.02 1.99 7.07-.29 7.87-3.57.04-3.19-2.64-6-1.72-9.27 2.44.42 3.18 2.96 4.27 4.8.82-.1 2.47-.29 3.29-.39-.62-3.18-2.26-6.69-5.64-7.63a5.181 5.181 0 00-6.91 4.49m14.68 16.95c.11 2.11 2.85 4.85.43 6.35-2.57-.72-3.09-3.43-3.77-5.63-.98.07-2.95.22-3.93.29.8 3.58 2.43 7.36 6.07 8.83 2.95 1.53 6.43-.83 7.21-3.78.24-3.18-2.7-6.12-1.52-9.26 2.42.39 3.13 2.87 4.07 4.74.88-.1 2.64-.32 3.51-.43-.9-3.62-3.19-8.1-7.54-7.9-3.59-.44-5.88 3.7-4.53 6.79m6.01 11.71c-3.85 5.03 3.63 13.14 8.92 9.76 3.9-2.32 6.87-5.83 10.14-8.91-.89-1.01-1.78-2.01-2.67-3.02-3.13 2.64-5.79 5.85-9.16 8.19-2.13 1.65-5.19-1.3-3.79-3.49 2.45-3.43 5.96-5.92 8.85-8.96-.95-1.04-1.91-2.08-2.86-3.12-3.15 3.16-6.85 5.86-9.43 9.55m8.94 15.79l2.86 3.16c1.42-1.3 2.82-2.61 4.25-3.9 1.72 1.49 3.34 3.38 5.68 3.89 3.98.82 8.12-3.6 6.43-7.51-1.35-3.18-4.27-5.32-6.44-7.92-4.09 4.26-8.51 8.2-12.78 12.28m11.14 11.78c.95 1.06 1.9 2.12 2.87 3.18 1.42-1.29 2.82-2.6 4.23-3.91 1.65 1.41 3.14 3.27 5.37 3.79 3.63 1.03 7.75-2.57 7.24-6.28-1.18-3.71-4.48-6.13-6.96-8.95-4.15 4.15-8.49 8.12-12.75 12.17m19.91 3.02c-2.92 1.66-5.48 4.34-6.18 7.72-.74 3.56 1.74 7.11 4.86 8.61 5.82 2.15 12.04-2.89 12.93-8.59.38-5.74-6.34-10.74-11.61-7.74m3.97 22.25c.94 1.08 1.89 2.17 2.83 3.26 1.72-1.64 3.43-3.27 5.2-4.85 1 2.98-.56 5.78-1.58 8.51 1.13 1.25 2.25 2.52 3.38 3.79.73-2.52 1.44-5.05 2.2-7.56a6.633 6.633 0 007.92-5.57c-.9-4.12-4.53-6.72-7.18-9.72-4.18 4.13-8.5 8.11-12.77 12.14m20.64 1.56c1.14 1.14 2.28 2.3 3.41 3.46-3.45 3.21-6.82 6.5-10.39 9.58q1.53 1.65 3.05 3.33c3.34-3.32 6.88-6.44 10.17-9.81 1.13 1.17 2.25 2.36 3.38 3.55.9-.82 1.8-1.64 2.7-2.45-3.18-3.37-6.44-6.68-9.5-10.15-.95.83-1.89 1.65-2.82 2.49z"/><path class="a" d="M189.655 59.647c10.89-9.06 27.45-10.12 39.68-3.18 6.72 3.71 11.16 10.16 16.4 15.57 3.51 3.6 6.35 9.02 12.12 8.89a93.937 93.937 0 0021.16-3.37 36.272 36.272 0 0130.35 10.86 38.617 38.617 0 0110.45 25.48c.58 6.07-.09 13.54 5.53 17.54 8.19 4.73 18.07 6.41 25.38 12.72 12.41 9.79 17.3 28.09 10.77 42.6-3.22 6.78-7.5 12.99-11.09 19.57a10.14 10.14 0 00-.39 9.48c3.53 6.76 8.01 13.01 11.2 19.95 6.33 14.32 2.18 32.42-9.78 42.54-6.18 5.59-14.48 7.54-21.81 11.09-5.9-6.24-11.74-12.53-17.75-18.67 6.22-3.38 13.01-5.52 19.4-8.54a12.377 12.377 0 005.39-16.19c-2.96-5.55-6.47-10.8-9.41-16.37a38.548 38.548 0 01.51-34.89c2.94-5.31 6.22-10.43 9.14-15.76 2.96-5.1 1.01-12.96-4.6-15.37-5.77-2.76-11.85-4.81-17.64-7.52a34.417 34.417 0 01-17.32-18.74c-3.22-7.73-1.88-16.34-3.83-24.35a12.742 12.742 0 00-13.74-9.08c-6.34.88-12.62 2.21-18.88 3.52-10.79 1.08-21.5-3.85-29.09-11.32-4.62-4.78-9-9.79-13.44-14.73-2.73-3.06-7.42-3.37-11.14-2.28-4.55 1.34-7.12 5.65-10.28 8.84-4.93 5.08-9.06 11.17-15.33 14.73-7.49 4.34-16.76 6.3-25.15 3.56q-13.035-13.875-26.17-27.65c4.21-.94 8.6-1.8 12.89-.92 5.95 1.31 12 2.09 18.01 3.08a13.142 13.142 0 0011.45-3.09c5.87-5.8 10.85-12.49 17.01-18z"/><path class="a" d="M174.535 125.287a53.945 53.945 0 0134 5 52.716 52.716 0 0126.37 31.72c2.98 9.09 2.65 18.89 1.05 28.2q-30.84-32.34-61.42-64.92zm-71.81 1.26c5.65 6.12 11.42 12.12 17.1 18.21-3.36 3.98-6.97 7.93-11.63 10.41-5.64 2.99-11.74 4.98-17.55 7.59-5.51 2.54-9.04 9.27-6.76 15.15 4.22 9.15 11.37 17.04 13.3 27.18 1.13 7.83.81 16.13-2.69 23.37-3.26 6.6-7.54 12.64-10.88 19.19-1.48 4.56-.48 10.87 4.06 13.39 8.34 4.6 18.15 6.45 25.68 12.5a33.864 33.864 0 0112 19.77c1.2 5.52 1.11 11.19 1.74 16.78.69 6.19 6.4 11.67 12.77 11.28 7.1-.32 14-2.33 20.98-3.55 10.68-.82 21.16 4.1 28.66 11.5 4.26 4.39 8.27 9.02 12.36 13.57 3.72 4.86 11.64 5.07 16.1 1.15 7.24-6.77 12.67-15.56 21.35-20.7 6.92-4.26 15.5-6.93 23.57-4.7 7.83.76 15.55 3.75 23.48 2.28 5.82 6.13 11.62 12.28 17.47 18.38-6.91 4.26-15.16 7.3-23.37 5.95-6.1-1.26-12.25-2.23-18.41-3.09a13.085 13.085 0 00-10.95 2.99c-5.73 5.57-10.56 12.02-16.39 17.48-13.03 11.56-34.9 11.06-47.23-1.31-5.39-5.6-10.44-11.52-15.72-17.22-4.9-3.68-11.41-1.62-16.95-.96-4.72.37-9.11 2.6-13.88 2.46-14.05.42-27.75-8.32-33.52-21.11-3.9-7.99-3.45-17.1-4.67-25.7-.49-4.19-3.87-7.62-7.71-9.06-7.9-3.58-16.69-5.84-23.19-11.87-11.29-9.66-15.86-26.55-10.29-40.44 3.19-7.43 8.07-13.97 11.76-21.14a10.163 10.163 0 00.2-9.22c-4.16-8.58-10.74-16.09-12.98-25.52a37.2 37.2 0 0111.36-36.67c7.32-6.64 17.36-8.58 25.94-13.01 2.13-1.24 3.44-3.4 4.89-5.31zm68.45 30.56c1.5-.59 3.89-.76 4.62 1.05 1.52 2.31-.39 4.99-2.24 6.42-1.59 1.35-4.38 2.84-5.94.65-2.78-2.9.97-6.63 3.56-8.12z"/><path class="a" d="M133.975 195.647c-4.36-11.53-4.08-24.51-.12-36.11 21.72 23.11 43.64 46.04 65.3 69.2-11.03 2.86-23 2.91-33.68-1.35a54.1 54.1 0 01-31.5-31.74zm48.31-22.75c1.29-1.4 2.61-2.78 3.92-4.17.93 1.46 1.86 2.92 2.76 4.41a35.1 35.1 0 01-3.03 1.99 33.888 33.888 0 01-3.65-2.23zm76 41.03c4.52-3.41 9.85-6.13 15.62-6.19 11.38-.5 22.44 8.11 24.46 19.37 1.82 8.02-1.16 16.28-6.5 22.3-11.23-11.79-22.37-23.67-33.58-35.48zm-72.91 42.71c9.4-2.77 20.14 3.69 22.27 13.19a18.177 18.177 0 11-35.72 6.19c-1-8.64 5.09-17.18 13.45-19.38zm104.34 21.91c.92 1.26 1.83 2.52 2.73 3.8-1.21.78-2.35 3.48-3.97 2-.96-.67-1.89-1.38-2.8-2.11 1.35-1.23 2.69-2.46 4.04-3.69zm7.14 15.47c1.39-1.27 2.78-2.53 4.17-3.8.6 1.44 2.35 2.77 1.88 4.45-.5.59-1.51 1.77-2.01 2.35-1.37-.98-2.71-1.98-4.04-3zm8.18 17.44a7.989 7.989 0 016.85-8.24c1.49.64 3.34 1.79 3 3.7-.8 4.13-6.15 7.93-9.85 4.54zm19.72 4.16c1.03 1.6 3.72 3.86 1.36 5.54-2.01 1.24-3.62-.99-5.06-2.07q1.83-1.755 3.7-3.47z"/></svg>